<?xml version="1.0" encoding="UTF-8" standalone="no"?>
<svg
   xmlns:dc="http://purl.org/dc/elements/1.1/"
   xmlns:cc="http://creativecommons.org/ns#"
   xmlns:rdf="http://www.w3.org/1999/02/22-rdf-syntax-ns#"
   xmlns:svg="http://www.w3.org/2000/svg"
   xmlns="http://www.w3.org/2000/svg"
   viewBox="0 0 323 232"
   height="232"
   width="323"
   version="1.1"
   id="svg2">
  <metadata
     id="metadata8">
    <rdf:RDF>
      <cc:Work
         rdf:about="">
        <dc:format>image/svg+xml</dc:format>
        <dc:type
           rdf:resource="http://purl.org/dc/dcmitype/StillImage" />
        <dc:title></dc:title>
      </cc:Work>
    </rdf:RDF>
  </metadata>
  <defs
     id="defs6" />
  <path
     id="path4138"
     d="M 208,198.48393 C 190.42488,194.89283 173.21364,184.98606 161.84832,171.91907 159.01678,168.66358 156.42573,166 156.09044,166 c -0.33529,0 -3.5303,2.70391 -7.10003,6.00868 -11.97778,11.08876 -21.64104,16.47905 -36.11763,20.14685 -7.89927,2.00137 -10.12172,2.09206 -39.297933,1.60361 -28.352273,-0.47465 -31.035376,-0.66847 -32.25,-2.32956 C 40.386507,190.14632 40,185.83927 40,176.66611 l 0,-12.95163 23.75,0.68845 c 30.213951,0.87583 39.69904,-0.0364 49.52673,-4.76335 11.2764,-5.42373 20.11328,-15.11921 24.73616,-27.13958 2.86675,-7.45409 3.15213,-21.05448 0.61901,-29.5 C 134.15683,88.079942 121.85,75.39743 106.46087,69.846896 101.60563,68.095716 97.335227,67.585934 83.437503,67.098469 63.959613,66.41528 67.331097,67.849327 51.5,53.513978 47.1,49.529698 42.014032,45.02437 40.197849,43.50214 c -2.185331,-1.831631 -3.199961,-3.483759 -3,-4.884916 C 37.498723,36.508945 37.641531,36.500023 71,36.505548 c 35.47043,0.0059 38.9688,0.351483 49.8296,4.922731 10.21446,4.299208 17.78307,9.330884 26.62506,17.70056 l 8.53785,8.081789 7.04114,-7.539578 c 13.20579,-14.140632 30.03418,-22.893543 49.0639,-25.519493 11.74662,-1.62094 29.39247,-0.153961 40.04501,3.329122 8.72787,2.853768 15.18878,6.171122 23.37309,12.000898 11.66254,8.30736 16.27681,14.387903 13.71904,18.078497 C 287.60491,69.911662 269.16403,84 267.7157,84 c -0.85566,0 -4.40423,-2.42477 -7.88572,-5.388378 -10.70057,-9.108836 -23.73869,-14.641262 -34.39387,-14.594258 -22.38193,0.09874 -43.76089,16.429114 -49.78097,38.025346 -3.89518,13.97344 -2.89362,25.39894 3.37791,38.53399 3.0369,6.36045 5.35597,9.49137 10.91357,14.73413 11.86016,11.18828 22.74845,15.29147 38.40455,14.47256 8.09272,-0.4233 10.30324,-0.96114 16.73654,-4.07214 4.07676,-1.97144 10.09281,-5.86296 13.36901,-8.64784 3.27619,-2.78488 6.43857,-5.06341 7.02749,-5.06341 1.55132,0 4.95207,2.45077 14.26579,10.2807 10.85547,9.12607 10.93857,10.38902 1.21024,18.39222 -11.25663,9.26047 -23.11579,15.03896 -36.56623,17.81722 -8.89093,1.83647 -27.39123,1.83332 -36.39401,-0.006 z"
     style="fill:#FBE5AF" />
</svg>
